<svg width="200" height="65" viewBox="0 0 200 65" fill="none" xmlns="http://www.w3.org/2000/svg">
<path d="M53.4965 19.5979C53.4965 30.3732 44.7614 39.1084 33.986 39.1084C23.2107 39.1084 14.4755 30.3732 14.4755 19.5979C14.4755 8.82255 23.2107 0.0874023 33.986 0.0874023C44.7614 0.0874023 53.4965 8.82255 53.4965 19.5979Z" fill="#EC4899"/>
<path d="M68.6014 44.1433C68.6014 54.9186 59.8663 63.6538 49.0909 63.6538C38.3156 63.6538 29.5804 54.9186 29.5804 44.1433C29.5804 33.368 38.3156 24.6328 49.0909 24.6328C59.8663 24.6328 68.6014 33.368 68.6014 44.1433Z" fill="#F87171"/>
<path d="M39.021 45.4021C39.021 56.1774 30.2858 64.9126 19.5105 64.9126C8.73514 64.9126 0 56.1774 0 45.4021C0 34.6267 8.73514 25.8916 19.5105 25.8916C30.2858 25.8916 39.021 34.6267 39.021 45.4021Z" fill="#5957E9"/>
<path d="M91.325 46.5874H81.2471V18.1583H91.4083C94.2679 18.1583 96.7295 18.7274 98.7932 19.8657C100.857 20.9947 102.444 22.6189 103.555 24.7381C104.674 26.8573 105.234 29.393 105.234 32.3451C105.234 35.3065 104.674 37.8514 103.555 39.9799C102.444 42.1083 100.848 43.7417 98.7654 44.88C96.6925 46.0183 94.2123 46.5874 91.325 46.5874ZM87.2578 41.4374H91.0751C92.852 41.4374 94.3465 41.1228 95.5588 40.4935C96.7804 39.8549 97.6966 38.8694 98.3073 37.5367C98.9274 36.1949 99.2374 34.4643 99.2374 32.3451C99.2374 30.2444 98.9274 28.5277 98.3073 27.1951C97.6966 25.8625 96.785 24.8815 95.5727 24.2522C94.3604 23.623 92.8658 23.3083 91.089 23.3083H87.2578V41.4374Z" fill="#FAFBFF"/>
<path d="M119.293 47.0038C117.099 47.0038 115.211 46.5596 113.629 45.6712C112.056 44.7736 110.843 43.5057 109.992 41.8677C109.141 40.2205 108.715 38.2724 108.715 36.0237C108.715 33.8304 109.141 31.9055 109.992 30.249C110.843 28.5925 112.042 27.3015 113.587 26.3761C115.142 25.4507 116.965 24.988 119.057 24.988C120.463 24.988 121.773 25.2147 122.985 25.6681C124.207 26.1123 125.271 26.7833 126.178 27.6809C127.094 28.5786 127.806 29.7076 128.315 31.068C128.824 32.4191 129.079 34.0016 129.079 35.8154V37.4396H111.075V33.7749H123.512C123.512 32.9235 123.327 32.1693 122.957 31.5122C122.587 30.8552 122.073 30.3415 121.416 29.9714C120.769 29.592 120.014 29.4022 119.154 29.4022C118.256 29.4022 117.46 29.6105 116.766 30.0269C116.081 30.4341 115.545 30.9847 115.156 31.6788C114.767 32.3636 114.568 33.1271 114.559 33.9692V37.4534C114.559 38.5084 114.753 39.42 115.142 40.1881C115.54 40.9562 116.1 41.5485 116.822 41.9649C117.543 42.3813 118.4 42.5896 119.39 42.5896C120.047 42.5896 120.648 42.497 121.194 42.3119C121.74 42.1269 122.208 41.8492 122.596 41.479C122.985 41.1089 123.281 40.6554 123.485 40.1187L128.954 40.4796C128.676 41.7937 128.107 42.9412 127.247 43.9222C126.395 44.8939 125.294 45.6527 123.943 46.1987C122.601 46.7355 121.051 47.0038 119.293 47.0038Z" fill="#FAFBFF"/>
<path d="M150.678 31.3456L145.265 31.6788C145.172 31.2161 144.973 30.7996 144.668 30.4295C144.362 30.05 143.96 29.7493 143.46 29.5272C142.97 29.2958 142.382 29.1801 141.697 29.1801C140.781 29.1801 140.008 29.3745 139.379 29.7632C138.75 30.1426 138.435 30.6516 138.435 31.2901C138.435 31.7991 138.639 32.2294 139.046 32.5811C139.453 32.9327 140.152 33.215 141.142 33.4278L145.001 34.2052C147.074 34.6309 148.619 35.3157 149.637 36.2596C150.655 37.2036 151.164 38.4436 151.164 39.9799C151.164 41.3773 150.752 42.6034 149.929 43.6584C149.114 44.7134 147.995 45.537 146.569 46.1293C145.154 46.7123 143.52 47.0038 141.669 47.0038C138.847 47.0038 136.598 46.4162 134.923 45.2409C133.257 44.0564 132.281 42.4461 131.994 40.4102L137.81 40.1048C137.986 40.9654 138.412 41.6225 139.087 42.076C139.763 42.5202 140.628 42.7423 141.683 42.7423C142.72 42.7423 143.553 42.5433 144.182 42.1454C144.82 41.7382 145.144 41.2153 145.154 40.5768C145.144 40.04 144.918 39.6004 144.473 39.258C144.029 38.9064 143.344 38.638 142.419 38.4529L138.726 37.7172C136.644 37.3008 135.094 36.5789 134.076 35.5517C133.068 34.5245 132.563 33.215 132.563 31.6233C132.563 30.2536 132.933 29.0737 133.674 28.0835C134.423 27.0933 135.474 26.3298 136.825 25.7931C138.185 25.2563 139.777 24.988 141.6 24.988C144.293 24.988 146.412 25.5571 147.958 26.6954C149.512 27.8336 150.419 29.3837 150.678 31.3456Z" fill="#FAFBFF"/>
<path d="M164.494 55.0273C162.578 55.0273 160.936 54.7635 159.566 54.236C158.206 53.7178 157.123 53.0099 156.318 52.1122C155.513 51.2145 154.99 50.2058 154.749 49.0861L160.218 48.3503C160.385 48.776 160.649 49.174 161.01 49.5441C161.371 49.9143 161.847 50.2104 162.439 50.4325C163.041 50.6639 163.772 50.7796 164.633 50.7796C165.919 50.7796 166.979 50.4649 167.811 49.8356C168.654 49.2156 169.075 48.1745 169.075 46.7123V42.8117H168.825C168.566 43.4039 168.177 43.9638 167.659 44.4913C167.141 45.0188 166.474 45.4491 165.66 45.7823C164.845 46.1154 163.874 46.282 162.745 46.282C161.144 46.282 159.686 45.9118 158.372 45.1715C157.067 44.4219 156.026 43.279 155.249 41.7428C154.481 40.1973 154.097 38.2447 154.097 35.8848C154.097 33.4695 154.49 31.4521 155.277 29.8326C156.063 28.2131 157.109 27.0008 158.414 26.1956C159.728 25.3905 161.167 24.988 162.731 24.988C163.925 24.988 164.924 25.1915 165.729 25.5987C166.534 25.9967 167.182 26.4964 167.673 27.0979C168.172 27.6902 168.556 28.2732 168.825 28.847H169.047V25.2656H174.919V46.7956C174.919 48.6095 174.475 50.1272 173.586 51.3487C172.698 52.5703 171.467 53.4865 169.894 54.0972C168.33 54.7173 166.53 55.0273 164.494 55.0273ZM164.619 41.84C165.572 41.84 166.377 41.604 167.034 41.132C167.7 40.6508 168.209 39.966 168.561 39.0776C168.922 38.1799 169.102 37.1064 169.102 35.8571C169.102 34.6078 168.927 33.525 168.575 32.6088C168.223 31.6834 167.714 30.9662 167.048 30.4572C166.382 29.9482 165.572 29.6937 164.619 29.6937C163.647 29.6937 162.828 29.9575 162.162 30.485C161.495 31.0032 160.991 31.7251 160.649 32.6505C160.306 33.5759 160.135 34.6448 160.135 35.8571C160.135 37.0879 160.306 38.1521 160.649 39.0498C161 39.9382 161.505 40.6277 162.162 41.1181C162.828 41.5994 163.647 41.84 164.619 41.84Z" fill="#FAFBFF"/>
<path d="M185.538 34.2607V46.5874H179.625V25.2656H185.26V29.0274H185.51C185.982 27.7874 186.773 26.8064 187.884 26.0846C188.994 25.3535 190.341 24.988 191.923 24.988C193.404 24.988 194.695 25.3119 195.796 25.9597C196.898 26.6075 197.754 27.5329 198.364 28.7359C198.975 29.9297 199.281 31.3549 199.281 33.0114V46.5874H193.367V34.0664C193.376 32.7615 193.043 31.7436 192.368 31.0125C191.692 30.2721 190.762 29.902 189.577 29.902C188.782 29.902 188.078 30.0732 187.468 30.4156C186.866 30.758 186.394 31.2577 186.052 31.9148C185.718 32.5626 185.547 33.3446 185.538 34.2607Z" fill="#FAFBFF"/>
</svg>
